<svg xmlns="http://www.w3.org/2000/svg" width="24" height="24" viewBox="0 0 24 24" fill="none" stroke="#333" stroke-width="2" stroke-linecap="round" stroke-linejoin="round">
  <path d="M12 2.69l5.74 5.88a1 1 0 0 1 0 1.41l-2.83 2.9a1 1 0 0 1-1.42 0L12 11.3l-1.49 1.58a1 1 0 0 1-1.42 0L6.26 10a1 1 0 0 1 0-1.41L12 2.69z"></path>
  <path d="M12 2.69l5.74 5.88a1 1 0 0 1 0 1.41l-2.83 2.9a1 1 0 0 1-1.42 0L12 11.3l-1.49 1.58a1 1 0 0 1-1.42 0L6.26 10a1 1 0 0 1 0-1.41L12 2.69z" transform="translate(0, 8)"></path>
  <path d="M2.05 15l.94-1a.5.5 0 0 1 .71 0l1.4 1.44a.5.5 0 0 0 .71 0L7.29 14a.5.5 0 0 1 .71 0l1.4 1.44a.5.5 0 0 0 .71 0L11.59 14a.5.5 0 0 1 .71 0l1.4 1.44a.5.5 0 0 0 .71 0L15.89 14a.5.5 0 0 1 .71 0l1.4 1.44a.5.5 0 0 0 .71 0l.94-1"></path>
</svg>
